<svg id="ic_logout_outline" xmlns="http://www.w3.org/2000/svg" width="27" height="27" viewBox="0 0 27 27">
  <g id="ic_logout_outline-2" data-name="ic_logout_outline">
    <path id="Path_5637" data-name="Path 5637" d="M18.1,34.571a11.667,11.667,0,0,1-6.288-21.487.842.842,0,1,1,.909,1.417,9.967,9.967,0,1,0,10.758,0,.842.842,0,1,1,.909-1.417A11.664,11.664,0,0,1,18.1,34.571Z" transform="translate(-5.45 -9.255)" fill="#fff"/>
    <path id="Path_5638" data-name="Path 5638" d="M45.842,13.286A.842.842,0,0,1,45,12.445v-5.6a.842.842,0,1,1,1.684,0v5.6a.842.842,0,0,1-.842.842Z" transform="translate(-33.192 -4.255)" fill="#fff"/>
    <rect id="Rectangle_300" data-name="Rectangle 300" width="27" height="27" fill="none"/>
  </g>
</svg>
