<svg id="Group_113939" data-name="Group 113939" xmlns="http://www.w3.org/2000/svg" width="78.308" height="71.585" viewBox="0 0 78.308 71.585">
  <path id="Path_68960" data-name="Path 68960" d="M-396.443-76.283a4.068,4.068,0,0,0-4.025,4.025,4.068,4.068,0,0,0,4.025,4.025,3.954,3.954,0,0,0,3.928-3.928A3.93,3.93,0,0,0-396.443-76.283Z" transform="translate(435.596 126.587)" fill="#ed544e"/>
  <path id="Path_68961" data-name="Path 68961" d="M-345.6-42.553a13.743,13.743,0,0,0,.033-13.908l-25.208-43.656a13.7,13.7,0,0,0-12.058-7,13.748,13.748,0,0,0-12.058,6.986l-25.239,43.7a13.851,13.851,0,0,0,.047,13.989,13.779,13.779,0,0,0,12.025,6.906H-357.7A13.864,13.864,0,0,0-345.6-42.553Zm-5.473-3.155a7.6,7.6,0,0,1-6.648,3.848h-50.353a7.507,7.507,0,0,1-6.568-3.767,7.619,7.619,0,0,1-.015-7.679l25.239-43.689a7.471,7.471,0,0,1,6.584-3.814,7.505,7.505,0,0,1,6.584,3.83l25.225,43.689A7.512,7.512,0,0,1-351.072-45.708Z" transform="translate(422.001 107.118)" fill="#ed544e"/>
  <path id="Path_68962" data-name="Path 68962" d="M-397.411-93.556a4.377,4.377,0,0,0-3.106,4.395c.1,1.271.178,2.56.274,3.83.274,4.845.547,9.594.821,14.439a2.949,2.949,0,0,0,3.01,2.834,3.009,3.009,0,0,0,3.01-2.93c0-1,0-1.915.1-2.93.176-3.106.369-6.214.547-9.32.1-2.011.274-4.025.37-6.036a4.97,4.97,0,0,0-.37-2.013A4.035,4.035,0,0,0-397.411-93.556Z" transform="translate(435.565 115.609)" fill="#ed544e"/>
</svg>
